<?xml version="1.0" standalone="no"?>
<!DOCTYPE svg PUBLIC "-//W3C//DTD SVG 1.1//EN" "http://www.w3.org/Graphics/SVG/1.1/DTD/svg11.dtd" >
<svg xmlns="http://www.w3.org/2000/svg">
<metadata>
<json>
<![CDATA[
{
	"fontFamily": "nativo",
	"majorVersion": 1,
	"minorVersion": 0,
	"version": "Version 1.0",
	"fontId": "nativo",
	"psName": "nativo",
	"subFamily": "Regular",
	"fullName": "nativo",
	"description": "Font generated by IcoMoon."
}
]]>
</json>
</metadata>
<defs>
<font id="nativo" horiz-adv-x="1024">
<font-face units-per-em="1024" ascent="960" descent="-64" />
<missing-glyph horiz-adv-x="1024" />
<glyph unicode="&#x20;" horiz-adv-x="512" d="" />
<glyph unicode="&#xe008;" glyph-name="uniE008" horiz-adv-x="1374" d="M0 960h1374.316v-1030.414h-1374.316v1030.414zM1245.462 449.276c-1.706 180.052-8.542 258.568-51.2 314.036-7.68 11.946-22.186 18.772-34.132 27.296-41.814 30.73-238.944 41.814-467.636 41.814-228.702 0-435.21-11.084-476.17-41.814-12.8-8.524-27.316-15.35-35.84-27.296-41.822-55.468-47.786-133.984-50.346-314.036 2.56-180.062 8.524-258.57 50.346-314.036 8.524-12.8 23.040-18.774 35.84-27.306 40.96-31.574 247.468-41.814 476.17-43.52 228.692 1.706 425.822 11.946 467.636 43.52 11.946 8.532 26.452 14.506 34.132 27.306 42.658 55.466 49.494 133.974 51.2 314.036zM662.358 495.904c-11.58 140.898-86.51 223.906-220.556 223.906-122.458 0-218.722-110.432-218.722-287.88 0-178.212 87.73-289.396 232.734-289.396 115.766 0 196.798 85.298 209.588 226.95h-138.302c-5.48-52.548-27.414-92.914-73.72-92.914-73.108 0-86.51 72.354-86.51 149.27 0 105.868 30.46 159.932 81.032 159.932 45.082 0 73.718-32.75 77.976-89.868h136.48zM1140.026 495.904c-11.57 140.898-86.51 223.906-220.546 223.906-122.466 0-218.722-110.432-218.722-287.88 0-178.212 87.73-289.396 232.734-289.396 115.758 0 196.788 85.298 209.58 226.95h-138.304c-5.47-52.548-27.404-92.914-73.71-92.914-73.116 0-86.518 72.354-86.518 149.27 0 105.868 30.468 159.932 81.030 159.932 45.084 0 73.728-32.75 77.986-89.868h136.47z" />
<glyph unicode="&#xe009;" glyph-name="uniE009" d="M128 832h768v-768h-768z" />
<glyph unicode="&#xe00a;" glyph-name="uniE00A" d="M384 832c0-70.692 57.308-128 128-128s128 57.308 128 128c0 70.692-57.308 128-128 128s-128-57.308-128-128zM655.53 719.53c0-70.692 57.308-128 128-128s128 57.308 128 128c0 70.692-57.308 128-128 128s-128-57.308-128-128zM832 448c0-35.346 28.654-64 64-64s64 28.654 64 64c0 35.346-28.654 64-64 64s-64-28.654-64-64zM719.53 176.47c0-35.346 28.654-64 64-64s64 28.654 64 64c0 35.346-28.654 64-64 64s-64-28.654-64-64zM448.002 64c0 0 0 0 0 0 0-35.346 28.654-64 64-64s64 28.654 64 64c0 0 0 0 0 0s0 0 0 0c0 35.346-28.654 64-64 64s-64-28.654-64-64 0 0 0 0zM176.472 176.47c0 0 0 0 0 0 0-35.346 28.654-64 64-64s64 28.654 64 64c0 0 0 0 0 0s0 0 0 0c0 35.346-28.654 64-64 64s-64-28.654-64-64 0 0 0 0zM144.472 719.53c0 0 0 0 0 0 0-53.019 42.981-96 96-96s96 42.981 96 96c0 0 0 0 0 0s0 0 0 0c0 53.019-42.981 96-96 96s-96-42.981-96-96 0 0 0 0zM56 448c0-39.765 32.235-72 72-72s72 32.235 72 72c0 39.765-32.235 72-72 72s-72-32.235-72-72z" />
<glyph unicode="&#xe00c;" glyph-name="uniE00C" d="M512 896c282.77 0 512-186.25 512-416 0-229.752-229.23-416-512-416-27.156 0-53.81 1.734-79.824 5.044-109.978-109.978-241.25-129.7-368.176-132.596v26.916c68.536 33.578 128 94.74 128 164.636 0 9.754-0.758 19.33-2.164 28.696-115.796 76.264-189.836 192.754-189.836 323.304 0 229.75 229.23 416 512 416z" />
<glyph unicode="&#xe00d;" glyph-name="uniE00D" d="M512 960c-282.77 0-512-229.23-512-512s229.23-512 512-512 512 229.23 512 512-229.23 512-512 512zM512 704c141.384 0 256-114.616 256-256s-114.616-256-256-256-256 114.616-256 256 114.616 256 256 256zM817.47 142.53c-81.594-81.594-190.080-126.53-305.47-126.53-115.392 0-223.876 44.936-305.47 126.53s-126.53 190.078-126.53 305.47c0 115.39 44.936 223.876 126.53 305.47l67.882-67.882c0 0 0 0 0 0-131.006-131.006-131.006-344.17 0-475.176 63.462-63.462 147.838-98.412 237.588-98.412 89.748 0 174.124 34.95 237.588 98.412 131.006 131.006 131.006 344.168 0 475.176l67.882 67.882c81.594-81.594 126.53-190.080 126.53-305.47 0-115.392-44.936-223.876-126.53-305.47z" />
<glyph unicode="&#xe01e;" glyph-name="uniE01E" d="M1024 448c-1.278 66.862-15.784 133.516-42.576 194.462-26.704 61-65.462 116.258-113.042 161.92-47.552 45.696-103.944 81.82-164.984 105.652-61.004 23.924-126.596 35.352-191.398 33.966-64.81-1.282-129.332-15.374-188.334-41.356-59.048-25.896-112.542-63.47-156.734-109.576-44.224-46.082-79.16-100.708-102.186-159.798-23.114-59.062-34.128-122.52-32.746-185.27 1.286-62.76 14.964-125.148 40.134-182.206 25.088-57.1 61.476-108.828 106.11-151.548 44.61-42.754 97.472-76.504 154.614-98.72 57.118-22.304 118.446-32.902 179.142-31.526 60.708 1.29 120.962 14.554 176.076 38.914 55.15 24.282 105.116 59.48 146.366 102.644 41.282 43.14 73.844 94.236 95.254 149.43 13.034 33.458 21.88 68.4 26.542 103.798 1.246-0.072 2.498-0.12 3.762-0.12 35.346 0 64 28.652 64 64 0 1.796-0.094 3.572-0.238 5.332h0.238zM922.306 278.052c-23.472-53.202-57.484-101.4-99.178-141.18-41.67-39.81-91-71.186-144.244-91.79-53.228-20.678-110.29-30.452-166.884-29.082-56.604 1.298-112.596 13.736-163.82 36.474-51.25 22.666-97.684 55.49-135.994 95.712-38.338 40.198-68.528 87.764-88.322 139.058-19.87 51.284-29.228 106.214-27.864 160.756 1.302 54.552 13.328 108.412 35.254 157.69 21.858 49.3 53.498 93.97 92.246 130.81 38.73 36.868 84.53 65.87 133.874 84.856 49.338 19.060 102.136 28.006 154.626 26.644 52.5-1.306 104.228-12.918 151.562-34.034 47.352-21.050 90.256-51.502 125.624-88.782 35.396-37.258 63.21-81.294 81.39-128.688 18.248-47.392 26.782-98.058 25.424-148.496h0.238c-0.144-1.76-0.238-3.536-0.238-5.332 0-33.012 24.992-60.174 57.086-63.624-6.224-34.822-16.53-68.818-30.78-100.992z" />
<glyph unicode="&#xe01f;" glyph-name="uniE01F" d="M512 960c-278.748 0-505.458-222.762-511.848-499.974 5.92 241.864 189.832 435.974 415.848 435.974 229.75 0 416-200.576 416-448 0-53.020 42.98-96 96-96s96 42.98 96 96c0 282.77-229.23 512-512 512zM512-64c278.748 0 505.458 222.762 511.848 499.974-5.92-241.864-189.832-435.974-415.848-435.974-229.75 0-416 200.576-416 448 0 53.020-42.98 96-96 96s-96-42.98-96-96c0-282.77 229.23-512 512-512z" />
<glyph unicode="&#xe600;" glyph-name="fullscreen" data-tags="fullscreen" d="M706.133 375.467l-121.6-121.6 91.733-89.6-91.733-89.6h302.933v300.8l-91.733-89.6zM584.533 823.467l91.733-91.733-91.733-89.6 121.6-121.6 89.6 91.733 91.733-91.733v302.933zM317.867 375.467l-89.6-89.6-91.733 89.6v-300.8h302.933l-91.733 89.6 91.733 89.6zM136.533 823.467v-302.933l91.733 91.733 89.6-91.733 121.6 121.6-91.733 89.6 91.733 91.733z" />
<glyph unicode="&#xe601;" glyph-name="play_arrow" data-tags="play_arrow" d="M341.333 746.667v-597.333l469.333 298.667-469.333 298.667z" />
<glyph unicode="&#xe602;" glyph-name="pause" data-tags="pause" d="M256 149.333h170.667v597.333h-170.667v-597.333zM597.333 746.667v-597.333h170.667v597.333h-170.667z" />
<glyph unicode="&#xe603;" glyph-name="volume_off" data-tags="volume_off" d="M128 576v-256h170.667l213.333-213.333v682.667l-213.333-213.333h-170.667z" />
<glyph unicode="&#xe604;" glyph-name="volume_mute" data-tags="volume_mute" d="M704 448c0 74.667-42.667 140.8-106.667 172.8v-93.867l104.533-104.533c2.133 6.4 2.133 17.067 2.133 25.6zM810.667 448c0-40.533-8.533-76.8-23.467-113.067l64-64c27.733 53.333 44.8 113.067 44.8 177.067 0 183.467-128 334.933-298.667 373.333v-87.467c123.733-36.267 213.333-149.333 213.333-285.867zM181.333 832l-53.333-53.333 202.667-202.667h-202.667v-256h170.667l213.333-213.333v288l181.333-181.333c-27.733-21.333-59.733-40.533-96-51.2v-87.467c59.733 12.8 113.067 40.533 157.867 76.8l87.467-87.467 53.333 53.333-714.667 714.667zM512 789.333l-89.6-89.6 89.6-89.6v179.2z" />
<glyph unicode="&#xe605;" glyph-name="volume_down" data-tags="volume_down" d="M128 576v-256h170.667l213.333-213.333v682.667l-213.333-213.333h-170.667zM704 448c0 74.667-42.667 140.8-106.667 172.8v-343.467c64 29.867 106.667 96 106.667 170.667z" />
<glyph unicode="&#xe606;" glyph-name="volume_up" data-tags="volume_up" d="M128 576v-256h170.667l213.333-213.333v682.667l-213.333-213.333h-170.667zM704 448c0 74.667-42.667 140.8-106.667 172.8v-343.467c64 29.867 106.667 96 106.667 170.667zM597.333 821.333v-87.467c123.733-36.267 213.333-151.467 213.333-285.867s-89.6-249.6-213.333-285.867v-87.467c170.667 38.4 298.667 192 298.667 373.333 0 183.467-128 334.933-298.667 373.333z" />
<glyph unicode="&#xe607;" glyph-name="scrubber22" data-tags="scrubber2" d="M512 874.667c-234.667 0-426.667-192-426.667-426.667s192-426.667 426.667-426.667 426.667 192 426.667 426.667c0 234.667-192 426.667-426.667 426.667zM512 234.667c-119.467 0-213.333 93.867-213.333 213.333s93.867 213.333 213.333 213.333 213.333-93.867 213.333-213.333-93.867-213.333-213.333-213.333z" />
<glyph unicode="&#xe608;" glyph-name="scrubber" data-tags="scrubber" d="M725.333 448c0-117.821-95.513-213.333-213.333-213.333s-213.333 95.513-213.333 213.333c0 117.821 95.513 213.333 213.333 213.333s213.333-95.513 213.333-213.333zM512 874.667c-234.667 0-426.667-192-426.667-426.667s192-426.667 426.667-426.667 426.667 192 426.667 426.667c0 234.667-192 426.667-426.667 426.667zM512 106.667c-187.733 0-341.333 153.6-341.333 341.333s153.6 341.333 341.333 341.333 341.333-153.6 341.333-341.333c0-187.733-153.6-341.333-341.333-341.333z" />
<glyph unicode="&#xe60a;" glyph-name="learn_more1" data-tags="learn_more1" d="M768 275.2c-32 0-61.867-12.8-83.2-32l-305.067 177.067c2.133 10.667 4.267 19.2 4.267 29.867s-2.133 19.2-4.267 29.867l300.8 174.933c23.467-21.333 53.333-34.133 87.467-34.133 70.4 0 128 57.6 128 128s-57.6 128-128 128-128-57.6-128-128c0-10.667 2.133-19.2 4.267-29.867l-300.8-174.933c-23.467 21.333-53.333 34.133-87.467 34.133-70.4 0-128-57.6-128-128s57.6-128 128-128c34.133 0 64 12.8 87.467 34.133l302.933-177.067c-2.133-8.533-4.267-19.2-4.267-27.733 0-68.267 55.467-123.733 123.733-123.733s123.733 55.467 123.733 123.733-53.333 123.733-121.6 123.733z" />
<glyph unicode="&#xe60b;" glyph-name="uniE60B" d="M1024 351.906v192.188l-146.774 24.462c-5.958 18.132-13.222 35.668-21.694 52.5l86.454 121.034-135.896 135.898-120.826-86.304c-16.91 8.554-34.538 15.888-52.768 21.902l-24.402 146.414h-192.188l-24.402-146.416c-18.23-6.014-35.858-13.348-52.766-21.902l-120.828 86.304-135.898-135.898 86.454-121.036c-8.47-16.83-15.734-34.366-21.692-52.498l-146.774-24.46v-192.188l147.118-24.52c5.96-17.968 13.21-35.348 21.642-52.030l-86.748-121.448 135.898-135.896 121.654 86.894c16.602-8.35 33.89-15.528 51.764-21.434l24.578-147.472h192.188l24.578 147.474c17.874 5.906 35.162 13.084 51.766 21.432l121.652-86.892 135.896 135.896-86.744 121.446c8.432 16.682 15.678 34.062 21.64 52.032l147.118 24.518zM512 320c-70.692 0-128 57.306-128 128 0 70.692 57.308 128 128 128 70.694 0 128-57.308 128-128 0-70.694-57.306-128-128-128z" />
<glyph unicode="&#xe60c;" glyph-name="info" data-tags="info" d="M512 874.667c-234.667 0-426.667-192-426.667-426.667s192-426.667 426.667-426.667 426.667 192 426.667 426.667c0 234.667-192 426.667-426.667 426.667zM554.667 234.667h-85.333v256h85.333v-256zM554.667 576h-85.333v85.333h85.333v-85.333z" />
<glyph unicode="&#xe60d;" glyph-name="learn_more2" data-tags="learn_more2" d="M810.667 149.333h-597.333v597.333h298.667v85.333h-298.667c-46.933 0-85.333-38.4-85.333-85.333v-597.333c0-46.933 38.4-85.333 85.333-85.333h597.333c46.933 0 85.333 38.4 85.333 85.333v298.667h-85.333v-298.667zM597.333 832v-85.333h153.6l-420.267-420.267 59.733-59.733 420.267 420.267v-153.6h85.333v298.667h-298.667z" />
<glyph unicode="&#xe60e;" glyph-name="share" data-tags="share" d="M635.733 582.4l49.067 49.067-170.667 170.667-170.667-170.667 49.067-49.067 87.467 87.467v-330.667h68.267v330.667l87.467-87.467zM819.2 162.133v322.133c0 38.4-29.867 68.267-68.267 68.267h-136.533v-68.267h136.533v-322.133h-477.867v322.133h136.533v68.267h-136.533c-38.4 0-68.267-29.867-68.267-68.267v-322.133c0-38.4 29.867-68.267 68.267-68.267h477.867c38.4 0 68.267 32 68.267 68.267z" />
<glyph unicode="&#xe60f;" glyph-name="replay" data-tags="replay" d="M512 746.667v170.667l-213.333-213.333 213.333-213.333v170.667c140.8 0 256-115.2 256-256s-115.2-256-256-256-256 115.2-256 256h-85.333c0-187.733 153.6-341.333 341.333-341.333s341.333 153.6 341.333 341.333c0 189.867-153.6 341.333-341.333 341.333z" />
<glyph unicode="&#xe610;" glyph-name="exit_fullscreen" data-tags="exit_fullscreen" d="M765.867 74.667l121.6 119.467-91.733 91.733 91.733 89.6h-302.933v-300.8l91.733 89.6zM887.467 520.533l-91.733 91.733 91.733 89.6-121.6 121.6-89.6-91.733-91.733 91.733v-302.933zM258.133 74.667l89.6 89.6 91.733-89.6v300.8h-302.933l91.733-89.6-91.733-91.733zM439.467 520.533v302.933l-91.733-91.733-89.6 91.733-121.6-121.6 91.733-89.6-91.733-91.733z" />
</font>
</defs>
</svg>
